<?xml version="1.0" encoding="utf-8"?>
<!-- Generator: Adobe Illustrator 14.0.0, SVG Export Plug-In . SVG Version: 6.00 Build 43363)  -->
<!DOCTYPE svg PUBLIC "-//W3C//DTD SVG 1.1//EN" "http://www.w3.org/Graphics/SVG/1.1/DTD/svg11.dtd">
<svg version="1.1" id="Layer_1" xmlns="http://www.w3.org/2000/svg" xmlns:xlink="http://www.w3.org/1999/xlink" x="0px" y="0px"
	 width="612px" height="792px" viewBox="0 0 612 792" enable-background="new 0 0 612 792" xml:space="preserve">
<path fill="#FFFFFF" d="M324.778,406.899c0.469-0.714,0.841-1.496,1.108-2.318c0.265-0.814,0.428-1.669,0.482-2.54
	c0.053-0.863,0-1.742-0.168-2.613l-5.96-30.877c-0.189-0.979-0.57-1.904-1.097-2.739c-0.524-0.832-1.196-1.58-1.969-2.207
	c-0.773-0.628-1.653-1.139-2.594-1.496c-0.946-0.358-1.959-0.564-2.996-0.576l-21.469-0.258c-1.249-0.015-2.437,0.185-3.519,0.563
	c-1.096,0.383-2.084,0.949-2.914,1.659c-0.841,0.719-1.52,1.586-1.981,2.56c-0.467,0.985-0.711,2.077-0.675,3.23l1.154,37.207
	c0.033,1.074,0.229,2.109,0.567,3.077c0.341,0.972,0.826,1.874,1.435,2.676c0.611,0.805,1.344,1.508,2.18,2.082
	c0.835,0.574,1.769,1.018,2.78,1.306l0.612,11.318c0.024,0.439,0.13,0.839,0.301,1.185c0.172,0.346,0.409,0.637,0.693,0.861
	c0.285,0.223,0.617,0.377,0.98,0.45c0.362,0.072,0.753,0.063,1.157-0.042l30.084-7.77c0.312-0.081,0.595-0.234,0.841-0.442
	c0.245-0.208,0.452-0.469,0.611-0.766c0.159-0.297,0.271-0.629,0.328-0.979c0.056-0.349,0.056-0.716-0.009-1.084l-1.673-9.536
	C323.732,408.273,324.305,407.621,324.778,406.899z M300.183,402.203l-0.142-1.76l18.928-3.188l0.248,1.615L300.183,402.203z
	 M320.24,389.188c-0.118,0.594-0.342,1.151-0.655,1.643c-0.314,0.494-0.719,0.922-1.195,1.252c-0.479,0.333-1.03,0.566-1.633,0.669
	l-21.479,3.678c-0.727,0.125-1.435,0.092-2.092-0.075c-0.659-0.167-1.264-0.468-1.783-0.879c-0.52-0.411-0.952-0.93-1.266-1.532
	c-0.312-0.601-0.505-1.281-0.548-2.017l-1.275-21.883c-0.036-0.62,0.069-1.216,0.288-1.763c0.218-0.543,0.549-1.038,0.966-1.458
	c0.415-0.417,0.915-0.761,1.475-1.008c0.557-0.245,1.173-0.395,1.826-0.425l19.473-0.903c0.553-0.026,1.095,0.059,1.603,0.235
	c0.506,0.175,0.979,0.44,1.396,0.776c0.416,0.335,0.776,0.742,1.055,1.201c0.279,0.459,0.479,0.972,0.573,1.519l3.291,19.115
	C320.37,387.971,320.357,388.598,320.24,389.188z"/>
</svg>
