<?xml version="1.0" encoding="utf-8"?>
<!-- Generator: Adobe Illustrator 14.0.0, SVG Export Plug-In . SVG Version: 6.00 Build 43363)  -->
<!DOCTYPE svg PUBLIC "-//W3C//DTD SVG 1.1//EN" "http://www.w3.org/Graphics/SVG/1.1/DTD/svg11.dtd">
<svg version="1.1" id="Layer_1" xmlns="http://www.w3.org/2000/svg" xmlns:xlink="http://www.w3.org/1999/xlink" x="0px" y="0px"
	 width="50.4px" height="72px" viewBox="0 0 50.4 72" enable-background="new 0 0 50.4 72" xml:space="preserve">
<path fill="#FFFFFF" d="M45.777,47.899c0.469-0.715,0.841-1.496,1.107-2.318c0.266-0.814,0.429-1.669,0.482-2.54
	c0.053-0.863,0-1.742-0.168-2.613l-5.96-30.877c-0.189-0.979-0.57-1.904-1.098-2.739c-0.523-0.832-1.195-1.58-1.969-2.207
	c-0.772-0.628-1.652-1.139-2.594-1.496c-0.946-0.358-1.959-0.564-2.996-0.576L11.114,2.275C9.865,2.26,8.677,2.46,7.595,2.838
	C6.499,3.221,5.511,3.787,4.681,4.497C3.84,5.216,3.161,6.083,2.7,7.057c-0.467,0.985-0.711,2.077-0.675,3.23l1.154,37.207
	c0.033,1.074,0.229,2.108,0.567,3.077c0.341,0.972,0.826,1.874,1.435,2.676c0.611,0.805,1.344,1.508,2.18,2.082
	c0.835,0.574,1.769,1.018,2.78,1.306l0.612,11.318c0.024,0.438,0.13,0.839,0.301,1.185c0.172,0.347,0.409,0.638,0.693,0.861
	c0.285,0.223,0.617,0.377,0.98,0.45c0.362,0.071,0.753,0.062,1.157-0.042l30.083-7.771c0.312-0.081,0.596-0.233,0.842-0.441
	c0.244-0.208,0.451-0.47,0.61-0.767s0.271-0.629,0.328-0.979c0.056-0.35,0.056-0.716-0.009-1.084l-1.673-9.536
	C44.731,49.273,45.304,48.621,45.777,47.899z M21.182,43.203l-0.142-1.76l18.928-3.188l0.248,1.615L21.182,43.203z M41.239,30.188
	c-0.118,0.594-0.342,1.151-0.655,1.643c-0.313,0.494-0.719,0.922-1.195,1.252c-0.479,0.333-1.029,0.566-1.633,0.669L16.277,37.43
	c-0.727,0.125-1.435,0.093-2.092-0.074c-0.659-0.168-1.264-0.468-1.783-0.879c-0.52-0.411-0.952-0.93-1.266-1.532
	c-0.312-0.601-0.505-1.281-0.548-2.017L9.313,11.044c-0.036-0.62,0.069-1.216,0.288-1.763c0.218-0.543,0.549-1.038,0.966-1.458
	c0.415-0.417,0.915-0.761,1.475-1.008c0.557-0.245,1.173-0.395,1.826-0.425l19.473-0.903c0.553-0.026,1.095,0.059,1.604,0.235
	c0.506,0.175,0.979,0.44,1.396,0.776c0.416,0.335,0.776,0.742,1.055,1.201c0.279,0.459,0.479,0.972,0.573,1.519l3.291,19.115
	C41.369,28.971,41.356,29.598,41.239,30.188z"/>
</svg>
